HIERARCHY
ROOT Hips
{
	OFFSET 0.000000 35.082581 0.000000
	CHANNELS 6 Xposition Yposition Zposition Xrotation Yrotation Zrotation 
	JOINT Spine
	{
		OFFSET 0.000000 6.876099 0.125700
		CHANNELS 3 Xrotation Yrotation Zrotation
		JOINT Spine1
		{
			OFFSET 0.000000 5.730043 0.104720
			CHANNELS 3 Xrotation Yrotation Zrotation
			JOINT Spine1_split
			{
				OFFSET 0.000000 5.730043 0.104720
				CHANNELS 3 Xrotation Yrotation Zrotation
				JOINT Spine2
				{
					OFFSET 0.000000 5.730043 0.104720
					CHANNELS 3 Xrotation Yrotation Zrotation
					JOINT Neck
					{
						OFFSET 0.000000 10.314075 0.188496
						CHANNELS 3 Xrotation Yrotation Zrotation
						JOINT Head
						{
							OFFSET 0.000000 7.643700 -2.377400
							CHANNELS 3 Xrotation Yrotation Zrotation
							JOINT HeadTop_End
							{
								OFFSET 0.000000 43.788605 -13.619600
								CHANNELS 3 Xrotation Yrotation Zrotation
								End Site
								{
									OFFSET 0.000000 0.000000 0.000000
								}
							}
						}
					}
					JOINT LeftShoulder
					{
						OFFSET 2.196100 4.412489 0.087492
						CHANNELS 3 Xrotation Yrotation Zrotation
						JOINT LeftShoulder_split
						{
							OFFSET 2.196100 4.412489 0.087492
							CHANNELS 3 Xrotation Yrotation Zrotation
							JOINT LeftArm
							{
								OFFSET 8.771219 -2.981674 -0.026999
								CHANNELS 3 Xrotation Yrotation Zrotation
								JOINT LeftForeArm
								{
									OFFSET 8.512804 0.000000 -0.000000
									CHANNELS 3 Xrotation Yrotation Zrotation
									JOINT LeftHand
									{
										OFFSET 18.484802 0.000000 -0.000000
										CHANNELS 3 Xrotation Yrotation Zrotation
										JOINT LeftHandThumb1
										{
											OFFSET 2.499420 -1.158070 2.653252
											CHANNELS 3 Xrotation Yrotation Zrotation
											JOINT LeftHandThumb2
											{
												OFFSET 2.370079 -1.368366 1.368366
												CHANNELS 3 Xrotation Yrotation Zrotation
												JOINT LeftHandThumb3
												{
													OFFSET 2.676727 -1.545410 1.545409
													CHANNELS 3 Xrotation Yrotation Zrotation
													JOINT LeftHandThumb4
													{
														OFFSET 1.692226 -0.977005 0.977007
														CHANNELS 3 Xrotation Yrotation Zrotation
														End Site
														{
															OFFSET 0.000000 0.000000 0.000000
														}
													}
												}
											}
										}
										JOINT LeftHandIndex1
										{
											OFFSET 7.924831 -0.457527 2.345128
											CHANNELS 3 Xrotation Yrotation Zrotation
											JOINT LeftHandIndex2
											{
												OFFSET 3.643303 0.000000 0.000000
												CHANNELS 3 Xrotation Yrotation Zrotation
												JOINT LeftHandIndex3
												{
													OFFSET 3.810799 0.000000 0.000000
													CHANNELS 3 Xrotation Yrotation Zrotation
													JOINT LeftHandIndex4
													{
														OFFSET 2.403702 0.000000 0.000000
														CHANNELS 3 Xrotation Yrotation Zrotation
														End Site
														{
															OFFSET 0.000000 0.000000 0.000000
														}
													}
												}
											}
										}
										JOINT LeftHandMiddle1
										{
											OFFSET 8.563995 0.000000 -0.000000
											CHANNELS 3 Xrotation Yrotation Zrotation
											JOINT LeftHandMiddle2
											{
												OFFSET 3.861618 0.000000 0.000000
												CHANNELS 3 Xrotation Yrotation Zrotation
												JOINT LeftHandMiddle3
												{
													OFFSET 3.701603 0.000000 0.000000
													CHANNELS 3 Xrotation Yrotation Zrotation
													JOINT LeftHandMiddle4
													{
														OFFSET 2.322544 0.000000 0.000000
														CHANNELS 3 Xrotation Yrotation Zrotation
														End Site
														{
															OFFSET 0.000000 0.000000 0.000000
														}
													}
												}
											}
										}
										JOINT LeftHandRing1
										{
											OFFSET 8.426460 -0.424637 -3.286992
											CHANNELS 3 Xrotation Yrotation Zrotation
											JOINT LeftHandRing2
											{
												OFFSET 3.126408 0.000000 0.000000
												CHANNELS 3 Xrotation Yrotation Zrotation
												JOINT LeftHandRing3
												{
													OFFSET 3.085026 0.000000 0.000000
													CHANNELS 3 Xrotation Yrotation Zrotation
													JOINT LeftHandRing4
													{
														OFFSET 1.644005 0.000000 0.000000
														CHANNELS 3 Xrotation Yrotation Zrotation
														End Site
														{
															OFFSET 0.000000 0.000000 0.000000
														}
													}
												}
											}
										}
									}
								}
							}
						}
					}
					JOINT RightShoulder
					{
						OFFSET -2.196100 4.412496 0.070690
						CHANNELS 3 Xrotation Yrotation Zrotation
						JOINT RightShoulder_split
						{
							OFFSET -2.196100 4.412496 0.070690
							CHANNELS 3 Xrotation Yrotation Zrotation
							JOINT RightArm
							{
								OFFSET -8.771282 -2.981682 -0.094208
								CHANNELS 3 Xrotation Yrotation Zrotation
								JOINT RightForeArm
								{
									OFFSET -8.494598 0.000000 0.000000
									CHANNELS 3 Xrotation Yrotation Zrotation
									JOINT RightHand
									{
										OFFSET -18.483803 0.000000 0.000001
										CHANNELS 3 Xrotation Yrotation Zrotation
										JOINT RightHandThumb1
										{
											OFFSET -2.527351 -1.008072 2.575253
											CHANNELS 3 Xrotation Yrotation Zrotation
											JOINT RightHandThumb2
											{
												OFFSET -2.321518 -1.340328 1.340329
												CHANNELS 3 Xrotation Yrotation Zrotation
												JOINT RightHandThumb3
												{
													OFFSET -2.657753 -1.534454 1.534455
													CHANNELS 3 Xrotation Yrotation Zrotation
													JOINT RightHandThumb4
													{
														OFFSET -1.807510 -1.043568 1.043567
														CHANNELS 3 Xrotation Yrotation Zrotation
														End Site
														{
															OFFSET 0.000000 0.000000 0.000000
														}
													}
												}
											}
										}
										JOINT RightHandIndex1
										{
											OFFSET -8.811420 0.015533 2.887987
											CHANNELS 3 Xrotation Yrotation Zrotation
											JOINT RightHandIndex2
											{
												OFFSET -3.537502 0.000000 0.000000
												CHANNELS 3 Xrotation Yrotation Zrotation
												JOINT RightHandIndex3
												{
													OFFSET -3.356201 0.000000 0.000000
													CHANNELS 3 Xrotation Yrotation Zrotation
													JOINT RightHandIndex4
													{
														OFFSET -1.933098 0.000000 0.000000
														CHANNELS 3 Xrotation Yrotation Zrotation
														End Site
														{
															OFFSET 0.000000 0.000000 0.000000
														}
													}
												}
											}
										}
										JOINT RightHandMiddle1
										{
											OFFSET -8.178135 0.000000 0.000000
											CHANNELS 3 Xrotation Yrotation Zrotation
											JOINT RightHandMiddle2
											{
												OFFSET -3.901302 0.000000 0.000000
												CHANNELS 3 Xrotation Yrotation Zrotation
												JOINT RightHandMiddle3
												{
													OFFSET -3.909599 0.000000 0.000000
													CHANNELS 3 Xrotation Yrotation Zrotation
													JOINT RightHandMiddle4
													{
														OFFSET -2.376003 0.000000 0.000000
														CHANNELS 3 Xrotation Yrotation Zrotation
														End Site
														{
															OFFSET 0.000000 0.000000 0.000000
														}
													}
												}
											}
										}
										JOINT RightHandRing1
										{
											OFFSET -7.559013 0.014137 -2.865403
											CHANNELS 3 Xrotation Yrotation Zrotation
											JOINT RightHandRing2
											{
												OFFSET -3.449306 0.000000 0.000000
												CHANNELS 3 Xrotation Yrotation Zrotation
												JOINT RightHandRing3
												{
													OFFSET -3.362106 0.000000 0.000000
													CHANNELS 3 Xrotation Yrotation Zrotation
													JOINT RightHandRing4
													{
														OFFSET -2.076401 0.000000 0.000000
														CHANNELS 3 Xrotation Yrotation Zrotation
														End Site
														{
															OFFSET 0.000000 0.000000 0.000000
														}
													}
												}
											}
										}
									}
								}
							}
						}
					}
				}
			}
		}
	}
	JOINT LeftUpLeg
	{
		OFFSET 10.205400 -3.823500 0.155100
		CHANNELS 3 Xrotation Yrotation Zrotation
		JOINT LeftLeg
		{
			OFFSET 0.708757 -12.982077 0.567790
			CHANNELS 3 Xrotation Yrotation Zrotation
			JOINT LeftFoot
			{
				OFFSET -0.708756 -10.717838 -2.184338
				CHANNELS 3 Xrotation Yrotation Zrotation
				JOINT LeftToeBase
				{
					OFFSET 0.108149 -7.191104 7.560241
					CHANNELS 3 Xrotation Yrotation Zrotation
					JOINT LeftToe_End
					{
						OFFSET 0.070230 0.081724 4.490308
						CHANNELS 3 Xrotation Yrotation Zrotation
						End Site
						{
							OFFSET 0.000000 0.000000 0.000000
						}
					}
				}
			}
		}
	}
	JOINT RightUpLeg
	{
		OFFSET -10.205400 -3.823500 0.005500
		CHANNELS 3 Xrotation Yrotation Zrotation
		JOINT RightLeg
		{
			OFFSET -0.708756 -12.982134 0.610632
			CHANNELS 3 Xrotation Yrotation Zrotation
			JOINT RightFoot
			{
				OFFSET 0.708754 -10.717769 -1.945823
				CHANNELS 3 Xrotation Yrotation Zrotation
				JOINT RightToeBase
				{
					OFFSET -0.108140 -7.191069 7.372968
					CHANNELS 3 Xrotation Yrotation Zrotation
					JOINT RightToe_End
					{
						OFFSET -0.070227 0.081735 4.479403
						CHANNELS 3 Xrotation Yrotation Zrotation
						End Site
						{
							OFFSET 0.000000 0.000000 0.000000
						}
					}
				}
			}
		}
	}
}
MOTION
Frames: 6
Frame Time: 0.016667
-8.818089 50.639854 12.728298 2.232619 -20.006568 2.395086 -1.334449 -0.034347 -1.047649 -2.672068 -0.088750 -1.714353 0.000000 0.000000 0.000000 -2.672068 -0.088749 -1.714352 -29.250152 2.152606 0.925378 -6.741629 1.385354 2.203544 0.000003 -0.000000 0.000001 3.677177 6.194744 24.143576 0.000000 0.000000 0.000000 -59.663383 -29.699315 18.551111 331.726387 -50.304808 364.575636 9.712940 12.043599 4.406375 -18.855683 8.933434 3.057158 -10.184090 7.391046 11.736439 0.000002 -0.000004 -0.000003 0.000001 -0.000000 -0.000002 -0.592744 -8.809705 -64.466891 -7.414311 -3.196013 -73.590275 -0.000013 -0.000000 -0.000016 0.000000 0.000001 0.000004 -4.669436 -3.546346 -64.557514 -4.343529 -4.390782 -63.402249 -0.000004 0.000004 -0.000002 -0.000000 0.000001 -0.000001 -8.499412 6.196402 -65.422291 -0.143916 -6.140958 -71.299190 0.000004 -0.000002 0.000001 -0.000001 -0.000001 -0.000005 -5.618875 -8.488125 -29.945264 0.000000 0.000000 0.000000 -79.202443 30.402094 25.861302 -28.766971 45.497355 -9.943789 18.101910 -7.770109 -17.702081 -9.927563 -3.135343 -3.423717 9.147236 -6.167977 1.841522 0.000012 0.000008 -0.000007 0.000002 0.000001 0.000002 -5.800749 7.899921 47.461113 -1.705271 0.304394 43.209833 0.000002 0.000003 0.000003 -0.000000 -0.000000 -0.000002 -3.405842 2.123228 34.452396 -0.819706 0.602201 26.448268 0.000006 0.000001 -0.000002 0.000001 -0.000000 0.000000 -6.121027 -2.660801 25.197524 0.241171 1.204270 20.283565 0.000005 -0.000000 0.000007 -0.000000 -0.000000 -0.000002 -23.872544 10.241001 3.206528 42.360382 6.281412 4.403303 19.404441 -0.337080 -4.617419 -0.000034 0.000001 -0.000019 -0.000001 0.000000 -0.000000 5.609078 -6.997535 -1.286479 15.274887 -21.911605 3.127091 27.746476 -3.096355 -0.195732 -0.613534 -0.783491 0.838852 0.000002 0.000001 -0.000002 
-9.020876 50.284325 13.056289 1.980289 -19.335624 2.121647 -1.423007 -0.108260 -0.989991 -2.849546 -0.229101 -1.624431 0.000000 0.000000 0.000000 -2.849545 -0.229105 -1.624431 -27.415807 2.071722 -0.405984 -8.884813 0.776540 3.209525 -0.000002 0.000001 0.000001 4.781812 6.071377 25.311079 0.000000 0.000000 0.000000 -58.312774 -25.193206 16.875552 334.030101 -55.829601 367.584443 10.718717 15.468664 -3.727588 -21.309482 8.848132 3.603929 -11.046018 7.810717 12.734286 -0.000002 -0.000006 -0.000003 -0.000001 0.000000 -0.000000 -0.668660 -9.385951 -69.496970 -8.126670 -3.034135 -78.334436 -0.000016 -0.000000 -0.000018 0.000000 0.000000 0.000002 -5.910816 -3.911906 -68.776139 -4.727740 -4.456421 -66.846447 -0.000002 0.000003 -0.000003 0.000002 0.000001 0.000002 -9.746259 6.167382 -68.259667 -0.270670 -6.498655 -74.555763 0.000004 0.000000 -0.000003 0.000002 0.000000 0.000002 -3.148153 -6.622055 -28.188290 0.000000 0.000000 0.000000 -74.921171 31.517252 20.078740 -28.646418 45.441102 -7.798845 14.499146 -7.568637 -15.891480 -11.314178 -0.640390 -7.794853 7.524576 -9.236268 1.695806 0.000012 0.000003 -0.000009 -0.000002 -0.000005 -0.000000 -6.559496 7.393460 54.528866 -2.449470 0.693821 50.819777 0.000002 0.000003 0.000001 0.000001 -0.000000 -0.000000 -5.103902 3.187951 44.972848 -1.503184 1.527327 37.885693 0.000006 0.000001 0.000001 0.000000 -0.000000 -0.000000 -7.748211 -2.737573 35.791728 0.247986 1.908893 31.704977 0.000004 -0.000000 0.000010 0.000000 0.000000 0.000001 -24.454791 9.852850 2.845102 42.928702 8.103926 4.102414 22.463001 -0.275385 -3.368657 -0.000019 0.000001 -0.000018 -0.000001 -0.000000 0.000000 3.890935 -7.349674 -2.020075 16.503378 -21.174980 3.258111 30.226391 -2.944952 -0.844176 -0.254698 0.048037 -0.222071 -0.000003 0.000001 -0.000002 
-9.213085 49.857819 13.374454 1.645101 -18.534330 1.801457 -1.508510 -0.148751 -0.916013 -3.020492 -0.300865 -1.519637 0.000000 0.000000 0.000000 -3.020490 -0.300878 -1.519638 -26.025208 2.006422 -1.891972 -10.487893 0.012928 4.301347 0.000001 0.000001 0.000000 5.846720 6.266301 26.599555 0.000000 0.000000 0.000000 -57.037192 -19.937341 14.143169 336.297423 -62.699525 371.221710 12.075447 18.775963 -12.001234 -22.924205 8.761545 3.939444 -11.613938 8.069320 13.395156 0.000005 -0.000006 0.000002 -0.000001 0.000002 -0.000000 -0.755082 -9.793350 -72.801654 -8.582114 -2.886308 -81.445232 -0.000014 0.000000 -0.000014 0.000000 0.000000 -0.000000 -6.750425 -4.067565 -71.547898 -4.980443 -4.484657 -69.106522 -0.000004 0.000005 -0.000004 -0.000000 -0.000001 -0.000001 -10.571548 6.213386 -70.118558 -0.370429 -6.734640 -76.693988 0.000005 -0.000000 -0.000001 -0.000001 -0.000002 -0.000001 -2.023508 -4.492263 -27.139948 0.000000 0.000000 0.000000 -68.184330 31.329425 12.866687 -29.783033 45.104052 -2.566829 9.883238 -7.225269 -16.008772 -12.809655 2.188557 -12.808827 5.561963 -12.734977 1.298102 0.000012 0.000003 -0.000006 0.000001 -0.000002 -0.000002 -7.288524 6.738071 62.692353 -3.350656 0.967329 59.638849 0.000003 0.000004 0.000001 -0.000000 -0.000000 -0.000000 -7.419777 3.777890 57.205519 -2.526052 2.313660 51.151007 0.000006 0.000002 0.000000 0.000000 0.000000 0.000000 -9.662690 -3.338281 48.032684 0.154359 2.763921 44.927140 0.000004 -0.000001 0.000009 0.000000 -0.000000 -0.000001 -24.826582 9.349843 2.711654 43.418898 10.087978 3.360306 25.430292 -0.194508 -1.741336 -0.000016 0.000000 -0.000017 -0.000005 -0.000000 0.000000 1.896415 -7.363338 -2.683209 17.971478 -19.956223 3.255322 32.943047 -2.424683 -1.808771 -0.065629 0.012376 -0.057152 -0.000001 -0.000000 0.000000 
-9.394121 49.383888 13.680521 1.242419 -17.589028 1.461724 -1.644835 -0.140290 -0.789026 -3.292605 -0.278828 -1.303055 0.000000 0.000000 0.000000 -3.292605 -0.278819 -1.303054 -24.829288 1.898695 -2.852153 -11.555621 -0.586103 4.627739 -0.000002 0.000000 0.000001 6.717998 6.329317 27.810083 0.000000 0.000000 0.000000 -55.092600 -13.574186 10.508935 339.071983 -71.280148 375.947327 13.106032 22.007759 -18.493757 -23.505080 8.724739 4.055218 -11.818377 8.158915 13.633689 -0.000001 -0.000008 -0.000004 -0.000003 -0.000000 -0.000004 -0.793930 -9.944883 -73.989896 -8.742875 -2.825311 -82.562295 -0.000014 0.000000 -0.000010 0.000000 -0.000000 -0.000002 -7.055856 -4.106884 -72.544040 -5.071191 -4.491910 -69.918420 -0.000004 0.000005 -0.000008 0.000000 -0.000001 -0.000002 -10.868892 6.242543 -70.785622 -0.409523 -6.819509 -77.462446 0.000003 0.000002 0.000001 0.000001 0.000000 0.000001 -0.962636 -3.617249 -26.818726 0.000000 0.000000 0.000000 -63.904254 30.681104 10.710917 -28.415926 46.120391 -0.431023 6.073483 -6.296534 -14.958008 -14.232514 4.972268 -17.779594 3.459905 -16.185136 0.633626 0.000012 0.000005 -0.000004 -0.000001 -0.000004 0.000001 -7.858098 6.046822 70.836158 -4.257022 1.049411 68.456705 0.000001 0.000004 0.000002 0.000000 0.000000 0.000001 -9.917069 3.592963 69.474779 -3.708007 2.725248 64.428806 0.000005 0.000001 -0.000002 -0.000000 -0.000000 -0.000002 -11.472223 -4.499104 60.238607 -0.069183 3.650707 58.140483 0.000004 -0.000000 0.000010 0.000000 -0.000000 -0.000002 -25.071446 9.238185 2.579383 43.838913 11.643419 2.922151 28.046652 0.144036 -0.092678 -0.000030 -0.000002 -0.000022 -0.000002 0.000000 -0.000000 0.136488 -7.294904 -2.813222 19.257029 -19.117426 2.084072 35.473229 -1.254027 -1.648710 -0.000052 0.000009 0.000067 0.000001 -0.000000 0.000003 
-9.565274 48.870335 13.975904 0.797353 -16.497992 1.134353 -1.821387 -0.101497 -0.647229 -3.645186 -0.203654 -1.025179 0.000000 0.000000 0.000000 -3.645186 -0.203663 -1.025180 -24.267532 1.941323 -3.350654 -11.760857 -1.172917 4.422592 -0.000002 0.000000 -0.000001 7.320418 6.338419 28.981790 0.000000 0.000000 0.000000 -52.671803 -14.065391 9.121995 338.090129 -68.157986 376.846863 11.945421 20.559351 -17.342516 -23.505068 8.724730 4.055230 -11.818407 8.158933 13.633711 -0.000001 -0.000010 -0.000005 0.000001 -0.000004 -0.000004 -0.793930 -9.944877 -73.989868 -8.742892 -2.825310 -82.562316 -0.000014 -0.000000 -0.000013 0.000000 -0.000000 -0.000001 -7.055854 -4.106872 -72.544040 -5.071194 -4.491909 -69.918434 -0.000002 0.000004 -0.000009 0.000002 0.000000 0.000002 -10.868883 6.242549 -70.785615 -0.409524 -6.819494 -77.462459 0.000003 0.000003 0.000001 0.000000 0.000001 0.000001 -0.014707 -4.129700 -27.086609 0.000000 0.000000 0.000000 -59.415085 29.020897 8.331360 -28.878945 47.707546 6.939940 1.223633 -4.908700 -16.511929 -15.457901 7.385624 -22.034950 1.468246 -19.147179 -0.190524 0.000011 0.000004 -0.000008 0.000003 0.000003 0.000001 -8.231840 5.455090 77.856951 -5.013846 0.971183 76.059115 0.000003 0.000003 -0.000003 0.000000 0.000000 -0.000002 -12.057073 2.779415 80.094063 -4.766503 2.727057 75.886038 0.000006 0.000001 0.000001 0.000000 0.000000 0.000001 -12.842162 -5.938219 70.756546 -0.382853 4.427179 69.533887 0.000003 -0.000001 0.000010 -0.000000 -0.000000 0.000002 -25.241229 9.018025 2.726365 44.481969 13.015399 1.859991 29.997136 0.662871 1.868055 -0.000008 -0.000000 -0.000020 0.000001 0.000000 -0.000000 -1.095236 -7.783605 -3.390124 20.432171 -17.282286 2.105614 37.482333 -0.858328 -1.370658 -0.000016 -0.000017 0.000064 0.000001 0.000002 0.000001 
-9.726455 48.368996 14.271162 0.342113 -15.271244 0.830097 -2.032771 -0.063510 -0.492055 -4.067668 -0.134287 -0.708514 0.000000 0.000000 0.000000 -4.067666 -0.134283 -0.708512 -23.990377 2.384002 -5.202905 -10.704737 -2.187144 5.398437 0.000001 0.000000 -0.000001 7.397611 6.276445 30.124751 0.000000 0.000000 0.000000 -50.546221 -14.728027 7.822476 336.666690 -64.851669 375.435910 10.146893 19.102287 -15.141701 -23.505063 8.724712 4.055241 -11.818402 8.158943 13.633686 -0.000000 -0.000008 -0.000005 -0.000004 -0.000002 -0.000004 -0.793921 -9.944887 -73.989855 -8.742879 -2.825299 -82.562329 -0.000014 -0.000000 -0.000013 0.000000 0.000000 0.000000 -7.055850 -4.106885 -72.544040 -5.071197 -4.491922 -69.918420 -0.000003 0.000004 -0.000008 -0.000000 -0.000000 -0.000000 -10.868889 6.242547 -70.785615 -0.409516 -6.819497 -77.462453 0.000003 0.000002 -0.000000 0.000000 0.000001 0.000001 0.236015 -5.224681 -28.113325 0.000000 0.000000 0.000000 -56.133783 28.750042 7.183398 -28.925650 47.084766 12.393191 -2.484761 -2.301489 -16.409080 -16.381456 9.161241 -24.911100 -0.030063 -21.394476 -0.975120 0.000011 0.000006 -0.000006 -0.000001 -0.000003 0.000001 -8.442192 5.085015 82.656846 -5.501663 0.843468 81.232854 0.000003 0.000003 0.000001 0.000001 -0.000000 -0.000000 -13.460096 1.873905 87.432814 -5.458773 2.472415 83.689379 0.000006 0.000001 0.000001 0.000000 0.000000 -0.000000 -13.640316 -7.149153 77.958085 -0.665168 4.952711 77.289027 0.000004 -0.000000 0.000011 0.000000 -0.000001 0.000001 -25.338091 8.778040 2.609376 45.014942 14.298852 1.202401 31.404049 1.095017 3.532615 -0.000018 -0.000001 -0.000020 -0.000001 -0.000000 -0.000001 -1.904918 -8.097171 -3.324623 21.214521 -15.493652 1.220856 39.061162 -0.710513 -0.005455 -0.000039 -0.000025 0.000086 0.000001 0.000000 0.000000 
